<mxfile host="app.diagrams.net" agent="Mozilla/5.0 (Macintosh; Intel Mac OS X 10_15_7) AppleWebKit/605.1.15 (KHTML, like Gecko) Version/17.6 Safari/605.1.15" version="24.7.17">
  <diagram name="Page-2" id="N4jyrV906aTvsPPIv9ZC">
    <mxGraphModel dx="1706" dy="2093" grid="1" gridSize="10" guides="1" tooltips="1" connect="1" arrows="1" fold="1" page="1" pageScale="1" pageWidth="827" pageHeight="1169" math="0" shadow="0">
      <root>
        <mxCell id="0" />
        <mxCell id="1" parent="0" />
        <mxCell id="uGS3khlRBaGODKfCaYPO-45" value="&lt;span style=&quot;font-size: 14px;&quot;&gt;AGILE ORGANIZATION&lt;/span&gt;" style="rounded=0;whiteSpace=wrap;html=1;shadow=0;fillColor=#2F5B7C;fontFamily=Helvetica;fontSize=14;fontColor=#FFFFFF;align=center;verticalAlign=top;fontStyle=0;spacing=10;strokeColor=none;spacingTop=0;opacity=90;" vertex="1" parent="1">
          <mxGeometry x="182" y="-70" width="970" height="68" as="geometry" />
        </mxCell>
        <mxCell id="uGS3khlRBaGODKfCaYPO-46" value="Customer" style="swimlane;whiteSpace=wrap;fillColor=#F08705;swimlaneFillColor=#FCE7CD;fontColor=#FFFFFF;fontFamily=Helvetica;html=1;startSize=37;strokeColor=none;collapsible=0;fontSize=14;fontStyle=0;opacity=80;" vertex="1" parent="1">
          <mxGeometry x="20" width="160" height="780" as="geometry">
            <mxRectangle x="20" y="20" width="80" height="23" as="alternateBounds" />
          </mxGeometry>
        </mxCell>
        <mxCell id="uGS3khlRBaGODKfCaYPO-47" value="Feature request or bug report" style="whiteSpace=wrap;strokeColor=none;fillColor=#F08705;shadow=0;fontColor=#FFFFFF;fontFamily=Helvetica;fontStyle=0;html=1;fontSize=12;strokeWidth=2;opacity=80;" vertex="1" parent="uGS3khlRBaGODKfCaYPO-46">
          <mxGeometry x="20" y="70" width="120" height="60" as="geometry" />
        </mxCell>
        <mxCell id="uGS3khlRBaGODKfCaYPO-48" value="Feedback" style="rounded=0;whiteSpace=wrap;html=1;shadow=0;fillColor=#F08705;fontFamily=Helvetica;fontSize=12;fontColor=#FFFFFF;align=center;fontStyle=0;strokeColor=none;strokeWidth=2;opacity=80;" vertex="1" parent="uGS3khlRBaGODKfCaYPO-46">
          <mxGeometry x="20" y="270" width="120" height="60" as="geometry" />
        </mxCell>
        <mxCell id="uGS3khlRBaGODKfCaYPO-49" value="Feedback" style="rounded=0;whiteSpace=wrap;html=1;shadow=0;fillColor=#F08705;fontFamily=Helvetica;fontSize=12;fontColor=#FFFFFF;align=center;fontStyle=0;strokeColor=none;strokeWidth=2;opacity=80;" vertex="1" parent="uGS3khlRBaGODKfCaYPO-46">
          <mxGeometry x="20" y="650" width="120" height="60" as="geometry" />
        </mxCell>
        <mxCell id="uGS3khlRBaGODKfCaYPO-50" value="Translators" style="swimlane;whiteSpace=wrap;fillColor=#1699D3;swimlaneFillColor=#D0EBF6;fontColor=#FFFFFF;fontFamily=Helvetica;html=1;startSize=37;strokeColor=none;fontSize=14;fontStyle=0;opacity=80;" vertex="1" parent="1">
          <mxGeometry x="830" width="160" height="780" as="geometry">
            <mxRectangle x="20" y="20" width="80" height="23" as="alternateBounds" />
          </mxGeometry>
        </mxCell>
        <mxCell id="uGS3khlRBaGODKfCaYPO-51" style="edgeStyle=orthogonalEdgeStyle;rounded=1;jumpStyle=gap;html=1;exitX=0.25;exitY=1;entryX=0.25;entryY=0;shadow=0;startArrow=none;startFill=0;endArrow=classic;endFill=1;jettySize=auto;orthogonalLoop=1;strokeWidth=2;fontFamily=Helvetica;fontSize=11;fontColor=#000000;fillColor=#f8cecc;strokeColor=#1699D3;startSize=3;endSize=3;" edge="1" parent="uGS3khlRBaGODKfCaYPO-50" source="uGS3khlRBaGODKfCaYPO-52" target="uGS3khlRBaGODKfCaYPO-53">
          <mxGeometry relative="1" as="geometry" />
        </mxCell>
        <mxCell id="uGS3khlRBaGODKfCaYPO-52" value="UI &amp;amp;&lt;br&gt;documentation" style="whiteSpace=wrap;strokeColor=none;fillColor=#1699d3;shadow=0;fontColor=#FFFFFF;fontFamily=Helvetica;fontStyle=0;html=1;opacity=80;" vertex="1" parent="uGS3khlRBaGODKfCaYPO-50">
          <mxGeometry x="20" y="450" width="120" height="60" as="geometry" />
        </mxCell>
        <mxCell id="uGS3khlRBaGODKfCaYPO-53" value="Marketing&lt;br&gt;materials" style="whiteSpace=wrap;strokeColor=none;fillColor=#1699d3;shadow=0;fontColor=#FFFFFF;fontFamily=Helvetica;fontStyle=0;html=1;opacity=80;" vertex="1" parent="uGS3khlRBaGODKfCaYPO-50">
          <mxGeometry x="20" y="564" width="120" height="60" as="geometry" />
        </mxCell>
        <mxCell id="uGS3khlRBaGODKfCaYPO-54" value="QA" style="swimlane;whiteSpace=wrap;fillColor=#94CE41;swimlaneFillColor=#EAF5D9;fontColor=#FFFFFF;fontFamily=Helvetica;html=1;startSize=37;strokeColor=none;fontSize=14;fontStyle=0;opacity=80;" vertex="1" parent="1">
          <mxGeometry x="668" width="160" height="780" as="geometry">
            <mxRectangle x="20" y="20" width="80" height="23" as="alternateBounds" />
          </mxGeometry>
        </mxCell>
        <mxCell id="uGS3khlRBaGODKfCaYPO-55" value="Testing" style="rhombus;whiteSpace=wrap;html=1;shadow=0;fillColor=#94CE41;fontFamily=Helvetica;fontSize=12;fontColor=#FFFFFF;align=center;strokeColor=none;fontStyle=0;spacing=0;verticalAlign=middle;opacity=80;" vertex="1" parent="uGS3khlRBaGODKfCaYPO-54">
          <mxGeometry x="20" y="370" width="120" height="80" as="geometry" />
        </mxCell>
        <mxCell id="uGS3khlRBaGODKfCaYPO-56" value="Product Owners" style="swimlane;whiteSpace=wrap;fillColor=#E85642;swimlaneFillColor=#FADDD9;fontColor=#FFFFFF;fontFamily=Helvetica;html=1;startSize=37;strokeColor=none;fontSize=14;fontStyle=0;opacity=80;" vertex="1" parent="1">
          <mxGeometry x="182" width="160" height="780" as="geometry">
            <mxRectangle x="180" y="20" width="80" height="23" as="alternateBounds" />
          </mxGeometry>
        </mxCell>
        <mxCell id="uGS3khlRBaGODKfCaYPO-57" style="edgeStyle=orthogonalEdgeStyle;rounded=0;html=1;exitX=0.5;exitY=1;jettySize=auto;orthogonalLoop=1;fontFamily=Helvetica;fontSize=12;fontColor=#000000;fillColor=#e1d5e7;strokeColor=#E85642;strokeWidth=2;startSize=3;endSize=3;entryX=0.5;entryY=0;" edge="1" parent="uGS3khlRBaGODKfCaYPO-56" source="uGS3khlRBaGODKfCaYPO-58" target="uGS3khlRBaGODKfCaYPO-59">
          <mxGeometry relative="1" as="geometry">
            <mxPoint x="80" y="150" as="targetPoint" />
          </mxGeometry>
        </mxCell>
        <mxCell id="uGS3khlRBaGODKfCaYPO-58" value="Goals, &lt;br style=&quot;font-size: 12px;&quot;&gt;requirements &amp;amp; planning" style="rhombus;whiteSpace=wrap;html=1;shadow=0;fontFamily=Helvetica;fontSize=12;fontColor=#FFFFFF;align=center;strokeColor=none;fillColor=#e85642;fontStyle=0;opacity=90;" vertex="1" parent="uGS3khlRBaGODKfCaYPO-56">
          <mxGeometry x="20" y="60" width="120" height="80" as="geometry" />
        </mxCell>
        <mxCell id="uGS3khlRBaGODKfCaYPO-59" value="&lt;font style=&quot;font-size: 12px&quot;&gt;&lt;span style=&quot;font-size: 12px&quot;&gt;Jira issues &amp;amp;&lt;br style=&quot;font-size: 12px;&quot;&gt;Confluence project documentation&lt;br style=&quot;font-size: 12px;&quot;&gt;&lt;/span&gt;&lt;/font&gt;" style="shape=document;whiteSpace=wrap;html=1;boundedLbl=1;fillColor=#e85642;fontSize=12;fontColor=#FFFFFF;align=center;fontFamily=Helvetica;fontStyle=0;shadow=0;strokeColor=none;spacingTop=6;opacity=90;" vertex="1" parent="uGS3khlRBaGODKfCaYPO-56">
          <mxGeometry x="20" y="160" width="120" height="80" as="geometry" />
        </mxCell>
        <mxCell id="uGS3khlRBaGODKfCaYPO-60" value="Meets&lt;br&gt;requirements?" style="rhombus;whiteSpace=wrap;html=1;shadow=0;fillColor=#e85642;fontFamily=Helvetica;fontSize=12;fontColor=#FFFFFF;align=center;strokeColor=none;fontStyle=0;spacingBottom=6;opacity=90;" vertex="1" parent="uGS3khlRBaGODKfCaYPO-56">
          <mxGeometry x="20" y="260" width="120" height="80" as="geometry" />
        </mxCell>
        <mxCell id="uGS3khlRBaGODKfCaYPO-61" value="Meets&lt;br&gt;requirements?" style="rhombus;whiteSpace=wrap;html=1;shadow=0;fillColor=#e85642;fontFamily=Helvetica;fontSize=12;fontColor=#FFFFFF;align=center;strokeColor=none;fontStyle=0;spacingBottom=6;opacity=90;" vertex="1" parent="uGS3khlRBaGODKfCaYPO-56">
          <mxGeometry x="20" y="470" width="120" height="80" as="geometry" />
        </mxCell>
        <mxCell id="uGS3khlRBaGODKfCaYPO-62" value="Meets goals?" style="rhombus;whiteSpace=wrap;html=1;shadow=0;fillColor=#e85642;fontFamily=Helvetica;fontSize=12;fontColor=#FFFFFF;align=center;strokeColor=none;fontStyle=0;opacity=90;" vertex="1" parent="uGS3khlRBaGODKfCaYPO-56">
          <mxGeometry x="20" y="570" width="120" height="80" as="geometry" />
        </mxCell>
        <mxCell id="uGS3khlRBaGODKfCaYPO-63" value="Programmers" style="swimlane;whiteSpace=wrap;fillColor=#94CE41;swimlaneFillColor=#EAF5D9;fontColor=#FFFFFF;fontFamily=Helvetica;html=1;startSize=37;strokeColor=none;fontSize=14;fontStyle=0;opacity=80;" vertex="1" parent="1">
          <mxGeometry x="344" width="160" height="780" as="geometry">
            <mxRectangle x="20" y="20" width="80" height="23" as="alternateBounds" />
          </mxGeometry>
        </mxCell>
        <mxCell id="uGS3khlRBaGODKfCaYPO-64" style="edgeStyle=orthogonalEdgeStyle;rounded=1;html=1;exitX=0.5;exitY=1;entryX=0.5;entryY=0;jettySize=auto;orthogonalLoop=1;fontFamily=Helvetica;fontSize=12;fontColor=#000000;fillColor=#fff2cc;strokeColor=#94CE41;strokeWidth=2;startSize=3;endSize=3;" edge="1" parent="uGS3khlRBaGODKfCaYPO-63" source="uGS3khlRBaGODKfCaYPO-65" target="uGS3khlRBaGODKfCaYPO-67">
          <mxGeometry relative="1" as="geometry" />
        </mxCell>
        <mxCell id="uGS3khlRBaGODKfCaYPO-65" value="Sprint planning" style="rhombus;whiteSpace=wrap;html=1;shadow=0;fillColor=#94CE41;fontFamily=Helvetica;fontSize=12;fontColor=#FFFFFF;align=center;strokeColor=none;fontStyle=0;spacing=0;verticalAlign=middle;gradientColor=none;opacity=80;" vertex="1" parent="uGS3khlRBaGODKfCaYPO-63">
          <mxGeometry x="20" y="60" width="120" height="80" as="geometry" />
        </mxCell>
        <mxCell id="uGS3khlRBaGODKfCaYPO-66" style="edgeStyle=orthogonalEdgeStyle;rounded=1;html=1;exitX=0.5;exitY=1;entryX=0.5;entryY=0;jettySize=auto;orthogonalLoop=1;fontFamily=Helvetica;fontSize=12;fontColor=#000000;fillColor=#fff2cc;strokeColor=#C3CD2D;strokeWidth=2;startSize=3;endSize=3;" edge="1" parent="uGS3khlRBaGODKfCaYPO-63" source="uGS3khlRBaGODKfCaYPO-67" target="uGS3khlRBaGODKfCaYPO-69">
          <mxGeometry relative="1" as="geometry" />
        </mxCell>
        <mxCell id="uGS3khlRBaGODKfCaYPO-67" value="Prototype(s)" style="whiteSpace=wrap;strokeColor=none;fillColor=#94CE41;shadow=0;fontColor=#FFFFFF;fontFamily=Helvetica;fontStyle=0;html=1;opacity=80;" vertex="1" parent="uGS3khlRBaGODKfCaYPO-63">
          <mxGeometry x="20" y="270" width="120" height="60" as="geometry" />
        </mxCell>
        <mxCell id="uGS3khlRBaGODKfCaYPO-68" style="edgeStyle=orthogonalEdgeStyle;rounded=1;html=1;exitX=0.5;exitY=1;entryX=0.5;entryY=0;jettySize=auto;orthogonalLoop=1;fontFamily=Helvetica;fontSize=12;fontColor=#000000;fillColor=#fff2cc;strokeColor=#94CE41;strokeWidth=2;startSize=3;endSize=3;" edge="1" parent="uGS3khlRBaGODKfCaYPO-63" source="uGS3khlRBaGODKfCaYPO-69" target="uGS3khlRBaGODKfCaYPO-71">
          <mxGeometry relative="1" as="geometry" />
        </mxCell>
        <mxCell id="uGS3khlRBaGODKfCaYPO-69" value="Implemention" style="whiteSpace=wrap;strokeColor=none;fillColor=#94CE41;shadow=0;fontColor=#FFFFFF;fontFamily=Helvetica;fontStyle=0;html=1;opacity=80;" vertex="1" parent="uGS3khlRBaGODKfCaYPO-63">
          <mxGeometry x="20" y="380" width="120" height="60" as="geometry" />
        </mxCell>
        <mxCell id="uGS3khlRBaGODKfCaYPO-70" style="edgeStyle=orthogonalEdgeStyle;rounded=1;jumpStyle=gap;html=1;exitX=0.5;exitY=1;jettySize=auto;orthogonalLoop=1;fontFamily=Helvetica;fontSize=12;fontColor=#000000;fillColor=#fff2cc;strokeColor=#94CE41;strokeWidth=2;startSize=3;endSize=3;" edge="1" parent="uGS3khlRBaGODKfCaYPO-63" source="uGS3khlRBaGODKfCaYPO-71" target="uGS3khlRBaGODKfCaYPO-72">
          <mxGeometry relative="1" as="geometry" />
        </mxCell>
        <mxCell id="uGS3khlRBaGODKfCaYPO-71" value="Release&lt;br&gt;candidate(s)" style="whiteSpace=wrap;strokeColor=none;fillColor=#94CE41;shadow=0;fontColor=#FFFFFF;fontFamily=Helvetica;fontStyle=0;html=1;opacity=80;" vertex="1" parent="uGS3khlRBaGODKfCaYPO-63">
          <mxGeometry x="20" y="480" width="120" height="60" as="geometry" />
        </mxCell>
        <mxCell id="uGS3khlRBaGODKfCaYPO-72" value="&lt;font style=&quot;font-size: 12px&quot;&gt;&lt;span style=&quot;font-size: 12px&quot;&gt;Release&lt;/span&gt;&lt;/font&gt;" style="shape=document;whiteSpace=wrap;html=1;boundedLbl=1;fillColor=#94CE41;fontSize=12;fontColor=#FFFFFF;align=center;fontFamily=Helvetica;fontStyle=0;shadow=0;strokeColor=none;opacity=80;spacingTop=6;" vertex="1" parent="uGS3khlRBaGODKfCaYPO-63">
          <mxGeometry x="20" y="650" width="120" height="60" as="geometry" />
        </mxCell>
        <mxCell id="uGS3khlRBaGODKfCaYPO-73" value="Documentors" style="swimlane;whiteSpace=wrap;fillColor=#94CE41;swimlaneFillColor=#EAF5D9;fontColor=#FFFFFF;fontFamily=Helvetica;html=1;startSize=37;strokeColor=none;fontSize=14;fontStyle=0;opacity=80;" vertex="1" parent="1">
          <mxGeometry x="506" width="160" height="780" as="geometry">
            <mxRectangle x="20" y="20" width="80" height="23" as="alternateBounds" />
          </mxGeometry>
        </mxCell>
        <mxCell id="uGS3khlRBaGODKfCaYPO-74" value="Documentation" style="whiteSpace=wrap;strokeColor=none;fillColor=#94CE41;shadow=0;fontColor=#FFFFFF;fontFamily=Helvetica;fontStyle=0;html=1;opacity=80;" vertex="1" parent="uGS3khlRBaGODKfCaYPO-73">
          <mxGeometry x="20" y="380" width="120" height="60" as="geometry" />
        </mxCell>
        <mxCell id="uGS3khlRBaGODKfCaYPO-75" value="Requirements &amp;amp; design&lt;br&gt;documentation" style="whiteSpace=wrap;strokeColor=none;fillColor=#94CE41;shadow=0;fontColor=#FFFFFF;fontFamily=Helvetica;fontStyle=0;html=1;opacity=80;" vertex="1" parent="uGS3khlRBaGODKfCaYPO-73">
          <mxGeometry x="20" y="160" width="120" height="60" as="geometry" />
        </mxCell>
        <mxCell id="uGS3khlRBaGODKfCaYPO-76" value="Marketing" style="swimlane;whiteSpace=wrap;fillColor=#736CA8;swimlaneFillColor=#E3E2EE;fontColor=#FFFFFF;fontFamily=Helvetica;html=1;startSize=37;strokeColor=none;fontSize=14;fontStyle=0;opacity=80;" vertex="1" parent="1">
          <mxGeometry x="992" width="160" height="780" as="geometry">
            <mxRectangle x="20" y="20" width="80" height="23" as="alternateBounds" />
          </mxGeometry>
        </mxCell>
        <mxCell id="uGS3khlRBaGODKfCaYPO-77" style="edgeStyle=orthogonalEdgeStyle;rounded=1;jumpStyle=gap;html=1;exitX=0.5;exitY=1;entryX=0.5;entryY=0;jettySize=auto;orthogonalLoop=1;fontFamily=Helvetica;fontSize=12;fontColor=#000000;fillColor=#d5e8d4;strokeColor=#736CA8;strokeWidth=2;startSize=3;endSize=3;" edge="1" parent="uGS3khlRBaGODKfCaYPO-76" source="uGS3khlRBaGODKfCaYPO-78" target="uGS3khlRBaGODKfCaYPO-79">
          <mxGeometry relative="1" as="geometry" />
        </mxCell>
        <mxCell id="uGS3khlRBaGODKfCaYPO-78" value="Marketing&lt;br&gt;materials" style="whiteSpace=wrap;strokeColor=none;fillColor=#736ca8;shadow=0;fontColor=#FFFFFF;fontFamily=Helvetica;fontStyle=0;html=1;opacity=80;" vertex="1" parent="uGS3khlRBaGODKfCaYPO-76">
          <mxGeometry x="20" y="510" width="120" height="60" as="geometry" />
        </mxCell>
        <mxCell id="uGS3khlRBaGODKfCaYPO-79" value="&lt;font style=&quot;font-size: 12px&quot;&gt;&lt;span style=&quot;font-size: 12px&quot;&gt;Marketing&lt;/span&gt;&lt;/font&gt;" style="shape=document;whiteSpace=wrap;html=1;boundedLbl=1;fillColor=#736ca8;fontSize=12;fontColor=#FFFFFF;align=center;fontFamily=Helvetica;fontStyle=0;shadow=0;strokeColor=none;opacity=80;spacingTop=6;" vertex="1" parent="uGS3khlRBaGODKfCaYPO-76">
          <mxGeometry x="20" y="650" width="120" height="60" as="geometry" />
        </mxCell>
        <mxCell id="uGS3khlRBaGODKfCaYPO-80" value="INDIVIDUAL AGILE TEAMS" style="rounded=0;whiteSpace=wrap;html=1;fillColor=#94CE41;fontSize=14;fontColor=#FFFFFF;align=center;fontStyle=0;fontFamily=Helvetica;strokeColor=none;opacity=50;" vertex="1" parent="1">
          <mxGeometry x="344" y="-30" width="484" height="28" as="geometry" />
        </mxCell>
        <mxCell id="uGS3khlRBaGODKfCaYPO-81" style="edgeStyle=orthogonalEdgeStyle;rounded=0;html=1;exitX=1;exitY=0.5;jettySize=auto;orthogonalLoop=1;fontFamily=Helvetica;fontSize=12;fontColor=#000000;fillColor=#ffe6cc;strokeColor=#F08705;strokeWidth=2;startSize=3;endSize=3;" edge="1" parent="1" source="uGS3khlRBaGODKfCaYPO-47" target="uGS3khlRBaGODKfCaYPO-58">
          <mxGeometry relative="1" as="geometry">
            <mxPoint x="200" y="130" as="targetPoint" />
          </mxGeometry>
        </mxCell>
        <mxCell id="uGS3khlRBaGODKfCaYPO-82" style="edgeStyle=orthogonalEdgeStyle;rounded=0;html=1;exitX=1;exitY=0.5;entryX=0;entryY=0.5;jettySize=auto;orthogonalLoop=1;fontFamily=Helvetica;fontSize=12;fontColor=#000000;fillColor=#e1d5e7;strokeColor=#E85642;startArrow=classic;startFill=1;dashed=1;strokeWidth=2;startSize=3;endSize=3;" edge="1" parent="1" source="uGS3khlRBaGODKfCaYPO-58" target="uGS3khlRBaGODKfCaYPO-65">
          <mxGeometry relative="1" as="geometry" />
        </mxCell>
        <mxCell id="uGS3khlRBaGODKfCaYPO-83" style="edgeStyle=orthogonalEdgeStyle;rounded=0;html=1;exitX=1;exitY=0.5;entryX=0;entryY=0.5;jettySize=auto;orthogonalLoop=1;fontFamily=Helvetica;fontSize=12;fontColor=#000000;dashed=1;fillColor=#e1d5e7;strokeColor=#E85642;strokeWidth=2;startSize=3;endSize=3;" edge="1" parent="1" source="uGS3khlRBaGODKfCaYPO-60" target="uGS3khlRBaGODKfCaYPO-67">
          <mxGeometry relative="1" as="geometry" />
        </mxCell>
        <mxCell id="uGS3khlRBaGODKfCaYPO-84" style="edgeStyle=orthogonalEdgeStyle;rounded=1;html=1;exitX=0.75;exitY=1;entryX=0.25;entryY=1;jettySize=auto;orthogonalLoop=1;fontFamily=Helvetica;fontSize=12;fontColor=#000000;fillColor=#ffe6cc;strokeColor=#F08705;strokeWidth=2;startSize=3;endSize=3;" edge="1" parent="1" source="uGS3khlRBaGODKfCaYPO-48" target="uGS3khlRBaGODKfCaYPO-67">
          <mxGeometry relative="1" as="geometry" />
        </mxCell>
        <mxCell id="uGS3khlRBaGODKfCaYPO-85" style="edgeStyle=orthogonalEdgeStyle;rounded=1;html=1;exitX=0.25;exitY=0;entryX=0.75;entryY=0;jettySize=auto;orthogonalLoop=1;fontFamily=Helvetica;fontSize=12;fontColor=#000000;fillColor=#fff2cc;strokeColor=#94CE41;strokeWidth=2;startSize=3;endSize=3;" edge="1" parent="1" source="uGS3khlRBaGODKfCaYPO-67" target="uGS3khlRBaGODKfCaYPO-48">
          <mxGeometry relative="1" as="geometry" />
        </mxCell>
        <mxCell id="uGS3khlRBaGODKfCaYPO-86" style="edgeStyle=orthogonalEdgeStyle;rounded=1;html=1;exitX=1;exitY=0.5;entryX=0;entryY=0.5;jettySize=auto;orthogonalLoop=1;fontFamily=Helvetica;fontSize=12;fontColor=#000000;dashed=1;fillColor=#e1d5e7;strokeColor=#E85642;strokeWidth=2;startSize=3;endSize=3;" edge="1" parent="1" source="uGS3khlRBaGODKfCaYPO-61" target="uGS3khlRBaGODKfCaYPO-71">
          <mxGeometry relative="1" as="geometry" />
        </mxCell>
        <mxCell id="uGS3khlRBaGODKfCaYPO-87" style="edgeStyle=orthogonalEdgeStyle;rounded=1;html=1;exitX=1;exitY=0.5;entryX=0;entryY=0.5;jettySize=auto;orthogonalLoop=1;fontFamily=Helvetica;fontSize=12;fontColor=#000000;fillColor=#fff2cc;strokeColor=#94CE41;startArrow=classic;startFill=1;strokeWidth=2;startSize=3;endSize=3;" edge="1" parent="1" source="uGS3khlRBaGODKfCaYPO-69" target="uGS3khlRBaGODKfCaYPO-74">
          <mxGeometry relative="1" as="geometry" />
        </mxCell>
        <mxCell id="uGS3khlRBaGODKfCaYPO-88" style="edgeStyle=orthogonalEdgeStyle;rounded=1;html=1;exitX=0.75;exitY=1;jettySize=auto;orthogonalLoop=1;fontFamily=Helvetica;fontSize=12;fontColor=#000000;fillColor=#fff2cc;strokeColor=#94CE41;entryX=0;entryY=0.25;jumpStyle=gap;strokeWidth=2;startSize=3;endSize=3;" edge="1" parent="1" source="uGS3khlRBaGODKfCaYPO-71" target="uGS3khlRBaGODKfCaYPO-78">
          <mxGeometry relative="1" as="geometry">
            <Array as="points">
              <mxPoint x="454" y="560" />
              <mxPoint x="780" y="560" />
              <mxPoint x="780" y="525" />
            </Array>
          </mxGeometry>
        </mxCell>
        <mxCell id="uGS3khlRBaGODKfCaYPO-89" style="edgeStyle=orthogonalEdgeStyle;rounded=1;html=1;exitX=0.864;exitY=-0.024;entryX=0.5;entryY=0;jettySize=auto;orthogonalLoop=1;fontFamily=Helvetica;fontSize=12;fontColor=#000000;fillColor=#fff2cc;strokeColor=#94CE41;startArrow=none;startFill=0;dashed=1;strokeWidth=2;exitPerimeter=0;startSize=3;endSize=3;" edge="1" parent="1" source="uGS3khlRBaGODKfCaYPO-69" target="uGS3khlRBaGODKfCaYPO-55">
          <mxGeometry relative="1" as="geometry">
            <Array as="points">
              <mxPoint x="468" y="340" />
              <mxPoint x="748" y="340" />
            </Array>
          </mxGeometry>
        </mxCell>
        <mxCell id="uGS3khlRBaGODKfCaYPO-90" style="edgeStyle=orthogonalEdgeStyle;rounded=1;html=1;exitX=0.75;exitY=1;entryX=0;entryY=0.25;jettySize=auto;orthogonalLoop=1;fontFamily=Helvetica;fontSize=12;fontColor=#000000;jumpStyle=gap;fillColor=#fff2cc;strokeColor=#94CE41;strokeWidth=2;startSize=3;endSize=3;" edge="1" parent="1" source="uGS3khlRBaGODKfCaYPO-74" target="uGS3khlRBaGODKfCaYPO-52">
          <mxGeometry relative="1" as="geometry" />
        </mxCell>
        <mxCell id="uGS3khlRBaGODKfCaYPO-91" style="edgeStyle=orthogonalEdgeStyle;rounded=1;html=1;exitX=0;exitY=0.75;entryX=1;entryY=0.75;jettySize=auto;orthogonalLoop=1;fontFamily=Helvetica;fontSize=12;fontColor=#000000;fillColor=#f8cecc;strokeColor=#1699D3;strokeWidth=2;startSize=3;endSize=3;" edge="1" parent="1" source="uGS3khlRBaGODKfCaYPO-52" target="uGS3khlRBaGODKfCaYPO-71">
          <mxGeometry relative="1" as="geometry">
            <Array as="points">
              <mxPoint x="760" y="495" />
              <mxPoint x="760" y="525" />
            </Array>
          </mxGeometry>
        </mxCell>
        <mxCell id="uGS3khlRBaGODKfCaYPO-92" style="edgeStyle=orthogonalEdgeStyle;rounded=1;jumpStyle=gap;html=1;exitX=0;exitY=0.5;jettySize=auto;orthogonalLoop=1;fontFamily=Helvetica;fontSize=12;fontColor=#000000;endArrow=diamond;endFill=1;shadow=0;strokeWidth=2;fillColor=#dae8fc;strokeColor=#2F5B7C;startArrow=diamond;startFill=1;startSize=5;endSize=5;opacity=90;" edge="1" parent="1" source="uGS3khlRBaGODKfCaYPO-79" target="uGS3khlRBaGODKfCaYPO-72">
          <mxGeometry relative="1" as="geometry" />
        </mxCell>
        <mxCell id="uGS3khlRBaGODKfCaYPO-93" style="edgeStyle=orthogonalEdgeStyle;rounded=1;jumpStyle=gap;html=1;exitX=0.5;exitY=1;entryX=0.75;entryY=0;endArrow=classic;endFill=1;jettySize=auto;orthogonalLoop=1;fontFamily=Helvetica;fontSize=12;fontColor=#000000;fillColor=#fff2cc;strokeColor=#94CE41;strokeWidth=2;startSize=3;endSize=3;" edge="1" parent="1" source="uGS3khlRBaGODKfCaYPO-74" target="uGS3khlRBaGODKfCaYPO-71">
          <mxGeometry relative="1" as="geometry" />
        </mxCell>
        <mxCell id="uGS3khlRBaGODKfCaYPO-94" style="edgeStyle=orthogonalEdgeStyle;rounded=1;jumpStyle=gap;html=1;exitX=0.5;exitY=1;entryX=1;entryY=0.25;shadow=0;endArrow=classic;endFill=1;jettySize=auto;orthogonalLoop=1;strokeWidth=2;fontFamily=Helvetica;fontSize=12;fontColor=#000000;fillColor=#fff2cc;strokeColor=#94CE41;startArrow=none;startFill=0;startSize=3;endSize=3;" edge="1" parent="1" source="uGS3khlRBaGODKfCaYPO-55" target="uGS3khlRBaGODKfCaYPO-71">
          <mxGeometry relative="1" as="geometry" />
        </mxCell>
        <mxCell id="uGS3khlRBaGODKfCaYPO-95" value="RETROSPECTIVE &amp;amp; REVIEW" style="rounded=0;whiteSpace=wrap;html=1;shadow=0;fillColor=#2f5b7c;fontFamily=Helvetica;fontSize=12;fontColor=#FFFFFF;align=center;strokeColor=none;fontStyle=0;opacity=90;" vertex="1" parent="1">
          <mxGeometry x="200" y="740" width="930" height="30" as="geometry" />
        </mxCell>
        <mxCell id="uGS3khlRBaGODKfCaYPO-96" style="edgeStyle=orthogonalEdgeStyle;rounded=1;jumpStyle=gap;html=1;exitX=0;exitY=0.5;entryX=1;entryY=0.5;shadow=0;startArrow=none;startFill=0;endArrow=classic;endFill=1;jettySize=auto;orthogonalLoop=1;strokeWidth=2;fontFamily=Helvetica;fontSize=11;fontColor=#000000;fillColor=#fff2cc;strokeColor=#94CE41;startSize=3;endSize=3;" edge="1" parent="1" source="uGS3khlRBaGODKfCaYPO-72" target="uGS3khlRBaGODKfCaYPO-49">
          <mxGeometry relative="1" as="geometry" />
        </mxCell>
        <mxCell id="uGS3khlRBaGODKfCaYPO-97" style="edgeStyle=orthogonalEdgeStyle;rounded=1;jumpStyle=gap;html=1;exitX=0.75;exitY=1;entryX=0;entryY=0.5;shadow=0;startArrow=none;startFill=0;endArrow=classic;endFill=1;jettySize=auto;orthogonalLoop=1;strokeWidth=2;fontFamily=Helvetica;fontSize=11;fontColor=#000000;fillColor=#ffe6cc;strokeColor=#F08705;startSize=3;endSize=3;" edge="1" parent="1" source="uGS3khlRBaGODKfCaYPO-49" target="uGS3khlRBaGODKfCaYPO-95">
          <mxGeometry relative="1" as="geometry" />
        </mxCell>
        <mxCell id="uGS3khlRBaGODKfCaYPO-98" style="edgeStyle=orthogonalEdgeStyle;rounded=1;jumpStyle=gap;html=1;exitX=0.25;exitY=1;entryX=1;entryY=0.5;shadow=0;startArrow=classic;startFill=1;endArrow=none;endFill=0;jettySize=auto;orthogonalLoop=1;strokeWidth=2;fontFamily=Helvetica;fontSize=11;fontColor=#000000;fillColor=#e1d5e7;strokeColor=#E85642;dashed=1;startSize=3;endSize=3;" edge="1" parent="1" source="uGS3khlRBaGODKfCaYPO-78" target="uGS3khlRBaGODKfCaYPO-62">
          <mxGeometry relative="1" as="geometry">
            <Array as="points">
              <mxPoint x="1042" y="640" />
              <mxPoint x="640" y="640" />
              <mxPoint x="640" y="610" />
            </Array>
          </mxGeometry>
        </mxCell>
        <mxCell id="uGS3khlRBaGODKfCaYPO-99" style="edgeStyle=orthogonalEdgeStyle;rounded=1;jumpStyle=gap;html=1;exitX=0;exitY=0.5;entryX=0.5;entryY=0;shadow=0;startArrow=none;startFill=0;endArrow=classic;endFill=1;jettySize=auto;orthogonalLoop=1;strokeWidth=2;fontFamily=Helvetica;fontSize=11;fontColor=#000000;fillColor=#d5e8d4;strokeColor=#736CA8;startSize=3;endSize=3;" edge="1" parent="1" source="uGS3khlRBaGODKfCaYPO-78" target="uGS3khlRBaGODKfCaYPO-53">
          <mxGeometry relative="1" as="geometry" />
        </mxCell>
        <mxCell id="uGS3khlRBaGODKfCaYPO-100" style="edgeStyle=orthogonalEdgeStyle;rounded=1;jumpStyle=gap;html=1;exitX=1;exitY=0.5;entryX=0;entryY=0.75;shadow=0;startArrow=none;startFill=0;endArrow=classic;endFill=1;jettySize=auto;orthogonalLoop=1;strokeWidth=2;fontFamily=Helvetica;fontSize=11;fontColor=#000000;fillColor=#f8cecc;strokeColor=#1699D3;startSize=3;endSize=3;" edge="1" parent="1" source="uGS3khlRBaGODKfCaYPO-53" target="uGS3khlRBaGODKfCaYPO-78">
          <mxGeometry relative="1" as="geometry">
            <Array as="points">
              <mxPoint x="980" y="594" />
              <mxPoint x="980" y="555" />
            </Array>
          </mxGeometry>
        </mxCell>
        <mxCell id="uGS3khlRBaGODKfCaYPO-101" style="edgeStyle=orthogonalEdgeStyle;rounded=1;jumpStyle=gap;html=1;exitX=0;exitY=0.5;shadow=0;dashed=1;startArrow=none;startFill=0;endArrow=classic;endFill=1;jettySize=auto;orthogonalLoop=1;strokeWidth=2;fontFamily=Helvetica;fontSize=11;fontColor=#000000;fillColor=#fff2cc;strokeColor=#94CE41;startSize=3;endSize=3;" edge="1" parent="1" source="uGS3khlRBaGODKfCaYPO-55" target="uGS3khlRBaGODKfCaYPO-69">
          <mxGeometry relative="1" as="geometry">
            <Array as="points">
              <mxPoint x="660" y="410" />
              <mxPoint x="660" y="360" />
              <mxPoint x="450" y="360" />
            </Array>
          </mxGeometry>
        </mxCell>
        <mxCell id="uGS3khlRBaGODKfCaYPO-102" style="edgeStyle=orthogonalEdgeStyle;rounded=1;jumpStyle=gap;html=1;exitX=0;exitY=0.5;entryX=1;entryY=0.375;entryPerimeter=0;shadow=0;startArrow=none;startFill=0;endArrow=classic;endFill=1;jettySize=auto;orthogonalLoop=1;strokeWidth=2;fontFamily=Helvetica;fontSize=11;fontColor=#000000;fillColor=#fff2cc;strokeColor=#94CE41;startSize=3;endSize=3;" edge="1" parent="1" source="uGS3khlRBaGODKfCaYPO-75" target="uGS3khlRBaGODKfCaYPO-59">
          <mxGeometry relative="1" as="geometry" />
        </mxCell>
      </root>
    </mxGraphModel>
  </diagram>
</mxfile>
